
######## ######## ######## ##          ######## ########  ######## 
##       ##       ##       ##          ##       ##     ## ##       
##       ##       ##       ##          ##       ##     ## ##       
######   ######   ######   ##          ######   ########  ######   
##       ##       ##       ##          ##       ##   ##   ##       
##       ##       ##       ##          ##       ##    ##  ##       
##       ######## ######## ########    ##       ##     ## ######## 

Genre:Action | Fantasy | Thriller 
Language:English
IMDb: 
http://www.imdb.com/title/tt1502404/
Source:Cinedub/Imagine Thx.
Subtitles:Romana

Format : MPEG-4
Format profile : Base Media
Codec ID : isom
File size : 753 MiB
Duration : 1h 32mn
Overall bit rate : 1 135 Kbps
Movie name : Drive.Angry.2011.TS.x264.Feel-Free

Video
Format settings, CABAC : Yes
Format settings, ReFrames : 4 frames
Format settings, GOP : M=4, N=12
Codec ID : avc1
Codec ID/Info : Advanced Video Coding
Duration : 1h 32mn
Bit rate mode : Variable
Bit rate : 978 Kbps
Width : 720 pixels
Height : 400 pixels
Display aspect ratio : 16:9
Frame rate mode : Constant
Frame rate : 25.000 fps
Color space : YUV
Chroma subsampling : 4:2:0
Bit depth : 8 bits
Scan type : Progressive
Bits/(Pixel*Frame) : 0.136
Stream size : 648 MiB (86%)
Writing library : x264

Audio
ID : 2
Format : AAC
Format/Info : Advanced Audio Codec
Format version : Version 4
Format profile : LC
Codec ID : 40
Duration : 1h 32mn
Bit rate mode : Variable
Bit rate : 152 Kbps
Channel(s) : 2 channels
Channel positions : Front: L R
Sampling rate : 44.1 KHz
Stream size : 101 MiB (13%)


Plot:
A vengeful father escapes from hell and chases after the men who killed his daughter and kidnapped his granddaughter.





================================== 
http://thepiratebay.org/user/hiest
==================================





Screen Shots:
 
http://www.postimg.com/30000/photo-29747.jpg
 
http://www.postimg.com/30000/photo-29748.jpg
 
http://www.postimg.com/30000/photo-29754.jpg
 
http://www.postimg.com/30000/photo-29752.jpg
 
http://www.postimg.com/30000/photo-29749.jpg
 
http://www.postimg.com/30000/photo-29750.jpg


######## ######## ######## ##          ######## ########  ######## 
##       ##       ##       ##          ##       ##     ## ##       
##       ##       ##       ##          ##       ##     ## ##       
######   ######   ######   ##          ######   ########  ######   
##       ##       ##       ##          ##       ##   ##   ##       
##       ##       ##       ##          ##       ##    ##  ##       
##       ######## ######## ########    ##       ##     ## ######## 
